/vscmnt/brussel_pixiu_data/_data_brussel/112/vsc11236/PredSimResults/SUBJ06mtu3D/weighted-LRposFixed/expIG/worker_02.mot
version=1
nRows=8
nColumns=50
inDegrees=yes
endheader
                time	         pelvis_tilt	         pelvis_list	     pelvis_rotation	           pelvis_tx	           pelvis_ty	           pelvis_tz	       hip_flexion_r	     hip_adduction_r	      hip_rotation_r	        knee_angle_r	       ankle_angle_r	         mtp_angle_r	       hip_flexion_l	     hip_adduction_l	      hip_rotation_l	        knee_angle_l	       ankle_angle_l	         mtp_angle_l	    lumbar_extension	      lumbar_bending	     lumbar_rotation	 ercspn_r/activation	 intobl_r/activation	 extobl_r/activation	    abd_r/activation	    add_r/activation	hamstrings_r/activation	bifemsh_r/activation	glut_max_r/activation	iliopsoas_r/activation	rect_fem_r/activation	  vasti_r/activation	gastroc_r/activation	 soleus_r/activation	tib_ant_r/activation	 ercspn_l/activation	 intobl_l/activation	 extobl_l/activation	    abd_l/activation	    add_l/activation	hamstrings_l/activation	bifemsh_l/activation	glut_max_l/activation	iliopsoas_l/activation	rect_fem_l/activation	  vasti_l/activation	gastroc_l/activation	 soleus_l/activation	tib_ant_l/activation	
          1.00000001	         -8.72521261	         -8.30651695	         14.40912044	          1.11000001	          0.96481685	         -0.01241293	         31.84352968	          9.75352040	          0.54194515	        -45.57607490	         -4.89041518	         21.89320196	         20.81813865	         -4.25471053	          2.67394429	        -24.90036795	         14.82519179	          0.49139477	         -1.58842997	          4.10498627	          9.35317999	          0.10199819	          0.14487361	          0.14959937	          0.03266843	          0.01000000	          0.01000000	          0.22741815	          0.02123919	          0.40531178	          0.90491803	          0.01812455	          0.07481886	          0.06074028	          0.36895641	          0.05239509	          0.17740130	          0.03816722	          0.17527316	          0.09646255	          0.22958913	          0.01361235	          0.02555153	          0.01777778	          0.07079848	          0.02652634	          0.01000000	          0.01000005	          0.34850444	
          1.02000001	         -8.59579478	         -8.14779884	         14.12516646	          1.12668846	          0.95880977	         -0.01338500	         35.23356682	          9.86013882	         -0.11321408	        -51.82988233	         -2.42361623	         17.01298086	         18.95990743	         -4.37030551	          2.43190277	        -23.31218652	         16.21638548	          1.33370929	         -2.41665357	          4.13579422	          9.08672469	          0.10957461	          0.10865522	          0.19483074	          0.02450132	          0.01000001	          0.01000000	          0.17056365	          0.01592939	          0.30398384	          0.95925056	          0.01359342	          0.05611414	          0.04555521	          0.34904460	          0.03929632	          0.13305103	          0.02862542	          0.24864070	          0.07234691	          0.17596690	          0.01020933	          0.01916462	          0.01333334	          0.05309931	          0.13258405	          0.12885731	          0.21232792	          0.26137833	
          1.04000001	         -8.60022121	         -7.87983712	         13.85605085	          1.14324238	          0.95162190	         -0.01459711	         38.17382445	          9.48834356	         -0.99742809	        -54.98389446	          0.14524228	         13.10762969	         17.19816128	         -4.41341536	          1.95093961	        -22.68006756	         18.27988439	          3.31295085	         -3.19220391	          4.06953294	          8.79707357	          0.18514041	          0.08149142	          0.14612306	          0.01837599	          0.01333328	          0.01000000	          0.12792275	          0.01194705	          0.23664331	          0.78758303	          0.01019507	          0.04208561	          0.03416641	          0.30844414	          0.02947225	          0.09978828	          0.02146908	          0.27690258	          0.05426019	          0.13197517	          0.01000008	          0.10423099	          0.01000002	          0.15293997	          0.18125709	          0.17382680	          0.28057966	          0.19603375	
          1.06000001	         -8.68405103	         -7.46832940	         13.59786604	          1.16005009	          0.94582992	         -0.01606168	         40.31212942	          8.72033623	         -1.90968682	        -54.94863892	          2.27041531	          9.99727923	         15.72988965	         -4.26289701	          1.34622276	        -22.43187732	         19.84104264	          5.27995585	         -3.93430637	          3.89853302	          8.50762863	          0.20674718	          0.06196461	          0.10959230	          0.01378200	          0.01000001	          0.01000000	          0.09594207	          0.01000002	          0.17748288	          0.59068727	          0.02663375	          0.03156421	          0.02562481	          0.28020329	          0.06914072	          0.07484121	          0.01610184	          0.28254272	          0.04069515	          0.09898138	          0.01000019	          0.07817325	          0.01000004	          0.20958889	          0.21325113	          0.21952448	          0.34073777	          0.14702531	
          1.08000001	         -8.82409534	         -7.01123684	         13.30466335	          1.17800539	          0.94226148	         -0.01763723	         41.35139399	          7.84825642	         -2.69697891	        -51.72894145	          3.83155047	          7.58557187	         14.33166749	         -4.05296968	          0.67030200	        -22.20516968	         20.55952682	          7.21910888	         -4.51145592	          3.70881028	          8.24402245	          0.19729315	          0.04647348	          0.08219423	          0.01033650	          0.01000001	          0.01000000	          0.07195657	          0.03160503	          0.15371876	          0.44301545	          0.01997532	          0.02367316	          0.01921861	          0.25306159	          0.12762748	          0.05613091	          0.01207642	          0.27771859	          0.03052137	          0.07423604	          0.01000016	          0.05862995	          0.01000005	          0.21280557	          0.19451355	          0.24864855	          0.36345733	          0.11026899	
          1.10000001	         -8.99556981	         -6.54411507	         12.97557985	          1.19773131	          0.94048370	         -0.01922125	         41.21940231	          7.03843322	         -3.34143031	        -45.77210318	          4.77643955	          5.76143025	         12.67808789	         -3.83789691	         -0.07167198	        -21.53206646	         20.58049103	          9.12368928	         -4.83794043	          3.50731072	          7.97808026	          0.19841072	          0.03485512	          0.06164568	          0.01000000	          0.01000005	          0.01000001	          0.05396744	          0.02370381	          0.16599384	          0.33226159	          0.01498149	          0.01775487	          0.01441396	          0.23944244	          0.09900951	          0.04209819	          0.01000014	          0.24083639	          0.02289103	          0.05567704	          0.01000012	          0.04397247	          0.01000003	          0.16520119	          0.14588517	          0.27414040	          0.36523136	          0.08270174	
          1.12000001	         -9.17405263	         -6.08713485	         12.60877769	          1.21932119	          0.93966506	         -0.02079302	         40.01632946	          6.40371533	         -3.73816017	        -37.60939494	          5.34867792	          4.38180180	         10.74323329	         -3.63007018	         -0.85723329	        -20.45680752	         20.12603278	         11.01836919	         -4.91122811	          3.32369186	          7.72327749	          0.20867221	          0.02614135	          0.04623426	          0.01000001	          0.05209714	          0.01000001	          0.04047564	          0.01777786	          0.14229686	          0.24919620	          0.01123613	          0.01331616	          0.01081048	          0.24242386	          0.09106665	          0.03157365	          0.01000010	          0.18062738	          0.01716828	          0.04175778	          0.01000014	          0.03297936	          0.01000005	          0.12390093	          0.10941388	          0.29688769	          0.35282321	          0.06202631	
          1.14000001	         -9.33739293	         -5.61795543	         12.19655514	          1.24292405	          0.93903076	         -0.02237534	         37.83529245	          5.97920518	         -3.83783613	        -27.79193617	          5.73022115	          3.30519632	          8.52919401	         -3.39822543	         -1.69445418	        -19.08757840	         19.37388380	         12.94350225	         -4.72259656	          3.14624193	          7.49410737	          0.24494862	          0.01960601	          0.03467570	          0.01000000	          0.10447201	          0.05033823	          0.23741607	          0.01333340	          0.10672267	          0.18689715	          0.01000001	          0.01000010	          0.01000002	          0.23508057	          0.12248742	          0.02368024	          0.01000002	          0.13547055	          0.01287622	          0.03131835	          0.01000030	          0.02473455	          0.01000006	          0.09292571	          0.08206041	          0.31380430	          0.33296365	          0.04651973	
